<!DOCTYPE svg PUBLIC "-//W3C//DTD SVG 1.1//EN" "http://www.w3.org/Graphics/SVG/1.1/DTD/svg11.dtd">
<!-- Uploaded to: SVG Repo, www.svgrepo.com, Transformed by: SVG Repo Mixer Tools -->
<svg width="800px" height="800px" viewBox="0 0 24 24" data-name="025_SCIENCE" id="_025_SCIENCE" xmlns="http://www.w3.org/2000/svg" fill="#000000">
<g id="SVGRepo_bgCarrier" stroke-width="0"/>
<g id="SVGRepo_tracerCarrier" stroke-linecap="round" stroke-linejoin="round"/>
<g id="SVGRepo_iconCarrier">
<defs>
<style>.cls-1{fill:#313841;}</style>
</defs>
<path class="cls-1" d="M21,21H3a1,1,0,0,1-.88-1.47l9-17a1,1,0,0,1,1.76,0l9,17A1,1,0,0,1,21,21ZM4.66,19H19.34L12,5.14Z"/>
<path class="cls-1" d="M15.5,20.53a1,1,0,0,1-1-1,6,6,0,0,1,2.82-5.09,1,1,0,0,1,1.38.32,1,1,0,0,1-.32,1.37,4,4,0,0,0-1.88,3.4A1,1,0,0,1,15.5,20.53Z"/>
<path class="cls-1" d="M8.44,20.53a1,1,0,0,1-1-1,4,4,0,0,0-1.88-3.4,1,1,0,0,1-.32-1.37,1,1,0,0,1,1.38-.32,6,6,0,0,1,2.82,5.09A1,1,0,0,1,8.44,20.53Z"/>
<path class="cls-1" d="M12.1,10.23a5.9,5.9,0,0,1-2.82-.71,1,1,0,0,1-.42-1.35,1,1,0,0,1,1.35-.41,4,4,0,0,0,3.88-.07,1,1,0,0,1,1.37.37,1,1,0,0,1-.37,1.36A6,6,0,0,1,12.1,10.23Z"/>
</g>
</svg>